{
  "accessors": [
    {
      "bufferView": 2,
      "componentType": 5126,
      "count": 6010,
      "max": [
        32.56583786010742,
        32.56583023071289,
        99.0793685913086
      ],
      "min": [
        -32.565818786621094,
        -32.56583023071289,
        -2.571678123786114e-06
      ],
      "type": "VEC3"
    },
    {
      "bufferView": 2,
      "byteOffset": 72120,
      "componentType": 5126,
      "count": 6010,
      "max": [
        1.0,
        1.0,
        1.0
      ],
      "min": [
        -1.0,
        -1.0,
        -1.0
      ],
      "type": "VEC3"
    },
    {
      "bufferView": 3,
      "componentType": 5126,
      "count": 6010,
      "max": [
        1.0,
        1.0,
        1.0,
        1.0
      ],
      "min": [
        -1.0,
        -1.0,
        -1.0,
        1.0
      ],
      "type": "VEC4"
    },
    {
      "bufferView": 1,
      "componentType": 5126,
      "count": 6010,
      "max": [
        0.999500036239624,
        0.9989566206932068
      ],
      "min": [
        0.0005000000237487257,
        0.0005000000237487257
      ],
      "type": "VEC2"
    },
    {
      "bufferView": 1,
      "byteOffset": 48080,
      "componentType": 5126,
      "count": 6010,
      "max": [
        0.999500036239624,
        0.9989566206932068
      ],
      "min": [
        0.0005000000237487257,
        0.0005000000237487257
      ],
      "type": "VEC2"
    },
    {
      "bufferView": 0,
      "componentType": 5125,
      "count": 6162,
      "type": "SCALAR"
    },
    {
      "bufferView": 2,
      "byteOffset": 144240,
      "componentType": 5126,
      "count": 4641,
      "max": [
        13.694528579711914,
        47.421146392822266,
        20.53542709350586
      ],
      "min": [
        -47.58482360839844,
        -20.705236434936523,
        -3.5398378372192383
      ],
      "type": "VEC3"
    },
    {
      "bufferView": 2,
      "byteOffset": 199932,
      "componentType": 5126,
      "count": 4641,
      "max": [
        0.997913658618927,
        0.9987227320671082,
        0.9941860437393188
      ],
      "min": [
        -0.9976471662521362,
        -0.9997704029083252,
        -0.9979267120361328
      ],
      "type": "VEC3"
    },
    {
      "bufferView": 1,
      "byteOffset": 96160,
      "componentType": 5126,
      "count": 4641,
      "max": [
        1.0848256349563599,
        1.0585578680038452
      ],
      "min": [
        0.0005812072777189314,
        -3.814697180359872e-08
      ],
      "type": "VEC2"
    },
    {
      "bufferView": 0,
      "byteOffset": 24648,
      "componentType": 5125,
      "count": 7956,
      "type": "SCALAR"
    }
  ],
  "asset": {
    "extras": {
      "author": "Lyskilde (https://sketchfab.com/longtail)",
      "license": "CC-BY-4.0 (http://creativecommons.org/licenses/by/4.0/)",
      "source": "https://sketchfab.com/3d-models/garden-urn-c0c7f5fa24704a23b0f3cbdd689b8176",
      "title": "Garden Urn"
    },
    "generator": "Sketchfab-12.65.0",
    "version": "2.0"
  },
  "bufferViews": [
    {
      "buffer": 0,
      "byteLength": 56472,
      "name": "floatBufferViews",
      "target": 34963
    },
    {
      "buffer": 0,
      "byteLength": 133288,
      "byteOffset": 56472,
      "byteStride": 8,
      "name": "floatBufferViews",
      "target": 34962
    },
    {
      "buffer": 0,
      "byteLength": 255624,
      "byteOffset": 189760,
      "byteStride": 12,
      "name": "floatBufferViews",
      "target": 34962
    },
    {
      "buffer": 0,
      "byteLength": 96160,
      "byteOffset": 445384,
      "byteStride": 16,
      "name": "floatBufferViews",
      "target": 34962
    }
  ],
  "buffers": [
    {
      "byteLength": 541544,
      "uri": "scene.bin"
    }
  ],
  "images": [
    {
      "uri": "/Items/Flower_bed/textures/GardenUrn_baseColor.png"
    },
    {
      "uri": "/Items/Flower_bed/textures/GardenUrn_metallicRoughness.png"
    },
    {
      "uri": "/Items/Flower_bed/textures/GardenUrn_normal.png"
    },
    {
      "uri": "/Items/Flower_bed/textures/Flowers_baseColor.png"
    }
  ],
  "materials": [
    {
      "doubleSided": true,
      "name": "GardenUrn",
      "normalTexture": {
        "index": 2
      },
      "occlusionTexture": {
        "index": 1
      },
      "pbrMetallicRoughness": {
        "baseColorTexture": {
          "index": 0
        },
        "metallicFactor": 0.0,
        "metallicRoughnessTexture": {
          "index": 1
        }
      }
    },
    {
      "alphaMode": "BLEND",
      "doubleSided": true,
      "name": "Flowers",
      "pbrMetallicRoughness": {
        "baseColorTexture": {
          "index": 3
        },
        "metallicFactor": 0.0,
        "roughnessFactor": 0.9300466752706374
      }
    }
  ],
  "meshes": [
    {
      "name": "GardenUrn_GardenUrn_0",
      "primitives": [
        {
          "attributes": {
            "NORMAL": 1,
            "POSITION": 0,
            "TANGENT": 2,
            "TEXCOORD_0": 3,
            "TEXCOORD_1": 4
          },
          "indices": 5,
          "material": 0,
          "mode": 4
        }
      ]
    },
    {
      "name": "Frowers_Flowers_0",
      "primitives": [
        {
          "attributes": {
            "NORMAL": 7,
            "POSITION": 6,
            "TEXCOORD_0": 8
          },
          "indices": 9,
          "material": 1,
          "mode": 4
        }
      ]
    }
  ],
  "nodes": [
    {
      "children": [
        1
      ],
      "matrix": [
        1.0,
        0.0,
        0.0,
        0.0,
        0.0,
        2.220446049250313e-16,
        -1.0,
        0.0,
        0.0,
        1.0,
        2.220446049250313e-16,
        0.0,
        0.0,
        0.0,
        0.0,
        1.0
      ],
      "name": "Sketchfab_model"
    },
    {
      "children": [
        2
      ],
      "matrix": [
        1.0,
        0.0,
        0.0,
        0.0,
        0.0,
        0.0,
        1.0,
        0.0,
        0.0,
        -1.0,
        0.0,
        0.0,
        0.0,
        0.0,
        0.0,
        1.0
      ],
      "name": "00645533b1dc4953954c5119e5eeecf1.fbx"
    },
    {
      "children": [
        3,
        5
      ],
      "name": "RootNode"
    },
    {
      "children": [
        4
      ],
      "matrix": [
        1.0,
        0.0,
        0.0,
        0.0,
        0.0,
        -1.6292067939183141e-07,
        -0.9999999999999868,
        0.0,
        0.0,
        0.9999999999999868,
        -1.6292067939183141e-07,
        0.0,
        0.0,
        0.0,
        0.0,
        1.0
      ],
      "name": "GardenUrn"
    },
    {
      "mesh": 0,
      "name": "GardenUrn_GardenUrn_0"
    },
    {
      "children": [
        6
      ],
      "matrix": [
        1.0,
        0.0,
        0.0,
        0.0,
        0.0,
        -1.6292067939183141e-07,
        -0.9999999999999868,
        0.0,
        0.0,
        0.9999999999999868,
        -1.6292067939183141e-07,
        0.0,
        18.403274536132813,
        96.5955810546875,
        15.648039817810059,
        1.0
      ],
      "name": "Frowers"
    },
    {
      "mesh": 1,
      "name": "Frowers_Flowers_0"
    }
  ],
  "samplers": [
    {
      "magFilter": 9729,
      "minFilter": 9987,
      "wrapS": 10497,
      "wrapT": 10497
    }
  ],
  "scene": 0,
  "scenes": [
    {
      "name": "Sketchfab_Scene",
      "nodes": [
        0
      ]
    }
  ],
  "textures": [
    {
      "sampler": 0,
      "source": 0
    },
    {
      "sampler": 0,
      "source": 1
    },
    {
      "sampler": 0,
      "source": 2
    },
    {
      "sampler": 0,
      "source": 3
    }
  ]
}
